<mxfile host="Electron" agent="Mozilla/5.0 (Windows NT 10.0; Win64; x64) AppleWebKit/537.36 (KHTML, like Gecko) draw.io/28.0.6 Chrome/138.0.7204.100 Electron/37.2.3 Safari/537.36" version="28.0.6">
  <diagram name="Page-1" id="Pnf2K1GhcKMJUXKjoD0P">
    <mxGraphModel dx="1426" dy="2010" grid="1" gridSize="10" guides="1" tooltips="1" connect="1" arrows="1" fold="1" page="1" pageScale="1" pageWidth="827" pageHeight="1169" math="0" shadow="0">
      <root>
        <mxCell id="0" />
        <mxCell id="1" parent="0" />
        <mxCell id="h8O5jdo177GPu5Cuocku-6" value="" style="rounded=0;whiteSpace=wrap;html=1;strokeColor=none;" vertex="1" parent="1">
          <mxGeometry x="50" y="-20" width="500" height="550" as="geometry" />
        </mxCell>
        <mxCell id="h8O5jdo177GPu5Cuocku-5" value="" style="rounded=0;whiteSpace=wrap;html=1;fillColor=#f5f5f5;fontColor=#333333;strokeColor=#666666;" vertex="1" parent="1">
          <mxGeometry x="60" y="-10" width="480" height="530" as="geometry" />
        </mxCell>
        <mxCell id="h8O5jdo177GPu5Cuocku-3" value="" style="rounded=0;whiteSpace=wrap;html=1;" vertex="1" parent="1">
          <mxGeometry x="80" y="30" width="440" height="310" as="geometry" />
        </mxCell>
        <mxCell id="4TyogP61yCH08lPokTED-6" value="&lt;b&gt;AR Core&lt;/b&gt;" style="html=1;dropTarget=0;whiteSpace=wrap;fontSize=17;fillColor=#fff2cc;strokeColor=#d6b656;" parent="1" vertex="1">
          <mxGeometry x="80" y="370" width="130" height="52.5" as="geometry" />
        </mxCell>
        <mxCell id="4TyogP61yCH08lPokTED-7" value="" style="shape=module;jettyWidth=8;jettyHeight=4;" parent="4TyogP61yCH08lPokTED-6" vertex="1">
          <mxGeometry x="1" width="20" height="20" relative="1" as="geometry">
            <mxPoint x="-27" y="7" as="offset" />
          </mxGeometry>
        </mxCell>
        <mxCell id="ksb8TZ0H9Ef2dd94mzRh-8" style="edgeStyle=orthogonalEdgeStyle;rounded=0;orthogonalLoop=1;jettySize=auto;html=1;exitX=0.5;exitY=1;exitDx=0;exitDy=0;entryX=0.5;entryY=0;entryDx=0;entryDy=0;startArrow=classic;startFill=1;" parent="1" source="4TyogP61yCH08lPokTED-8" target="4TyogP61yCH08lPokTED-12" edge="1">
          <mxGeometry relative="1" as="geometry" />
        </mxCell>
        <mxCell id="4TyogP61yCH08lPokTED-8" value="&lt;b&gt;AR Kit&lt;/b&gt;" style="html=1;dropTarget=0;whiteSpace=wrap;fillColor=#fff2cc;strokeColor=#d6b656;fontSize=17;" parent="1" vertex="1">
          <mxGeometry x="240" y="370" width="120" height="52.5" as="geometry" />
        </mxCell>
        <mxCell id="4TyogP61yCH08lPokTED-9" value="" style="shape=module;jettyWidth=8;jettyHeight=4;" parent="4TyogP61yCH08lPokTED-8" vertex="1">
          <mxGeometry x="1" width="20" height="20" relative="1" as="geometry">
            <mxPoint x="-27" y="7" as="offset" />
          </mxGeometry>
        </mxCell>
        <mxCell id="4TyogP61yCH08lPokTED-10" value="&lt;b&gt;OpenXR&lt;/b&gt;" style="html=1;dropTarget=0;whiteSpace=wrap;fontSize=17;fillColor=#fff2cc;strokeColor=#d6b656;" parent="1" vertex="1">
          <mxGeometry x="390" y="370" width="130" height="52.5" as="geometry" />
        </mxCell>
        <mxCell id="4TyogP61yCH08lPokTED-11" value="" style="shape=module;jettyWidth=8;jettyHeight=4;" parent="4TyogP61yCH08lPokTED-10" vertex="1">
          <mxGeometry x="1" width="20" height="20" relative="1" as="geometry">
            <mxPoint x="-27" y="7" as="offset" />
          </mxGeometry>
        </mxCell>
        <mxCell id="4TyogP61yCH08lPokTED-12" value="Platform Core" style="rounded=0;whiteSpace=wrap;html=1;fillColor=#dae8fc;strokeColor=#6c8ebf;fontSize=18;" parent="1" vertex="1">
          <mxGeometry x="90" y="466.25" width="420" height="30" as="geometry" />
        </mxCell>
        <mxCell id="4TyogP61yCH08lPokTED-21" value="AR Core&lt;div&gt;Plug-in&lt;/div&gt;" style="rounded=0;whiteSpace=wrap;html=1;fillColor=#dae8fc;strokeColor=#6c8ebf;fontSize=16;" parent="1" vertex="1">
          <mxGeometry x="115" y="280" width="110" height="40" as="geometry" />
        </mxCell>
        <mxCell id="ksb8TZ0H9Ef2dd94mzRh-3" style="edgeStyle=orthogonalEdgeStyle;rounded=0;orthogonalLoop=1;jettySize=auto;html=1;exitX=0.5;exitY=1;exitDx=0;exitDy=0;entryX=0.5;entryY=0;entryDx=0;entryDy=0;startArrow=classic;startFill=1;" parent="1" source="4TyogP61yCH08lPokTED-22" target="4TyogP61yCH08lPokTED-8" edge="1">
          <mxGeometry relative="1" as="geometry" />
        </mxCell>
        <mxCell id="4TyogP61yCH08lPokTED-22" value="AR Kit&lt;div&gt;Plug-in&lt;/div&gt;" style="rounded=0;whiteSpace=wrap;html=1;fontSize=16;fillColor=#dae8fc;strokeColor=#6c8ebf;" parent="1" vertex="1">
          <mxGeometry x="245" y="280" width="110" height="40" as="geometry" />
        </mxCell>
        <mxCell id="4TyogP61yCH08lPokTED-23" value="Plug-in X" style="rounded=0;whiteSpace=wrap;html=1;fontSize=16;fillColor=#dae8fc;strokeColor=#6c8ebf;" parent="1" vertex="1">
          <mxGeometry x="375" y="280" width="110" height="40" as="geometry" />
        </mxCell>
        <mxCell id="4TyogP61yCH08lPokTED-30" style="edgeStyle=orthogonalEdgeStyle;rounded=0;orthogonalLoop=1;jettySize=auto;html=1;exitX=0.5;exitY=1;exitDx=0;exitDy=0;entryX=0.5;entryY=0;entryDx=0;entryDy=0;startArrow=classic;startFill=1;" parent="1" source="4TyogP61yCH08lPokTED-24" target="4TyogP61yCH08lPokTED-22" edge="1">
          <mxGeometry relative="1" as="geometry" />
        </mxCell>
        <mxCell id="4TyogP61yCH08lPokTED-24" value="Functionality Subsystem" style="html=1;dropTarget=0;whiteSpace=wrap;fillColor=#fff2cc;strokeColor=#d6b656;fontSize=18;" parent="1" vertex="1">
          <mxGeometry x="110" y="210" width="380" height="40" as="geometry" />
        </mxCell>
        <mxCell id="4TyogP61yCH08lPokTED-25" value="" style="shape=module;jettyWidth=8;jettyHeight=4;" parent="4TyogP61yCH08lPokTED-24" vertex="1">
          <mxGeometry x="1" width="20" height="20" relative="1" as="geometry">
            <mxPoint x="-27" y="7" as="offset" />
          </mxGeometry>
        </mxCell>
        <mxCell id="4TyogP61yCH08lPokTED-33" style="edgeStyle=orthogonalEdgeStyle;rounded=0;orthogonalLoop=1;jettySize=auto;html=1;exitX=0.5;exitY=1;exitDx=0;exitDy=0;entryX=0.5;entryY=0;entryDx=0;entryDy=0;startArrow=classic;startFill=1;" parent="1" edge="1">
          <mxGeometry relative="1" as="geometry">
            <mxPoint x="429.5" y="250" as="sourcePoint" />
            <mxPoint x="429.5" y="280" as="targetPoint" />
          </mxGeometry>
        </mxCell>
        <mxCell id="4TyogP61yCH08lPokTED-35" style="edgeStyle=orthogonalEdgeStyle;rounded=0;orthogonalLoop=1;jettySize=auto;html=1;exitX=0.5;exitY=1;exitDx=0;exitDy=0;entryX=0.5;entryY=0;entryDx=0;entryDy=0;startArrow=classic;startFill=1;" parent="1" edge="1">
          <mxGeometry relative="1" as="geometry">
            <mxPoint x="169.5" y="250" as="sourcePoint" />
            <mxPoint x="169.5" y="280" as="targetPoint" />
            <Array as="points">
              <mxPoint x="169.5" y="260" />
              <mxPoint x="169.5" y="260" />
            </Array>
          </mxGeometry>
        </mxCell>
        <mxCell id="4TyogP61yCH08lPokTED-39" style="edgeStyle=orthogonalEdgeStyle;rounded=0;orthogonalLoop=1;jettySize=auto;html=1;exitX=0.5;exitY=1;exitDx=0;exitDy=0;entryX=0.5;entryY=0;entryDx=0;entryDy=0;startArrow=classic;startFill=1;" parent="1" source="4TyogP61yCH08lPokTED-37" target="4TyogP61yCH08lPokTED-24" edge="1">
          <mxGeometry relative="1" as="geometry" />
        </mxCell>
        <mxCell id="4TyogP61yCH08lPokTED-37" value="Functionality Manager" style="html=1;dropTarget=0;whiteSpace=wrap;fillColor=#fff2cc;strokeColor=#d6b656;fontSize=18;" parent="1" vertex="1">
          <mxGeometry x="110" y="140" width="380" height="40" as="geometry" />
        </mxCell>
        <mxCell id="4TyogP61yCH08lPokTED-38" value="" style="shape=module;jettyWidth=8;jettyHeight=4;" parent="4TyogP61yCH08lPokTED-37" vertex="1">
          <mxGeometry x="1" width="20" height="20" relative="1" as="geometry">
            <mxPoint x="-27" y="7" as="offset" />
          </mxGeometry>
        </mxCell>
        <mxCell id="4TyogP61yCH08lPokTED-42" style="edgeStyle=orthogonalEdgeStyle;rounded=0;orthogonalLoop=1;jettySize=auto;html=1;exitX=0.5;exitY=1;exitDx=0;exitDy=0;entryX=0.5;entryY=0;entryDx=0;entryDy=0;startArrow=classic;startFill=1;" parent="1" source="4TyogP61yCH08lPokTED-41" target="4TyogP61yCH08lPokTED-37" edge="1">
          <mxGeometry relative="1" as="geometry" />
        </mxCell>
        <mxCell id="4TyogP61yCH08lPokTED-41" value="CollabAR Core" style="rounded=0;whiteSpace=wrap;html=1;fontSize=18;fillColor=#dae8fc;strokeColor=#6c8ebf;" parent="1" vertex="1">
          <mxGeometry x="90" y="70" width="420" height="30" as="geometry" />
        </mxCell>
        <mxCell id="ksb8TZ0H9Ef2dd94mzRh-1" value="Unity&lt;div&gt;Engine&lt;/div&gt;" style="shape=umlFrame;whiteSpace=wrap;html=1;pointerEvents=0;fontStyle=1;fontSize=12;" parent="1" vertex="1">
          <mxGeometry x="80" y="30" width="440" height="310" as="geometry" />
        </mxCell>
        <mxCell id="ksb8TZ0H9Ef2dd94mzRh-5" value="User&lt;div&gt;Device&lt;/div&gt;" style="shape=umlFrame;whiteSpace=wrap;html=1;pointerEvents=0;fontStyle=1;fontSize=13;" parent="1" vertex="1">
          <mxGeometry x="60" y="-10" width="480" height="530" as="geometry" />
        </mxCell>
        <mxCell id="ksb8TZ0H9Ef2dd94mzRh-6" style="edgeStyle=orthogonalEdgeStyle;rounded=0;orthogonalLoop=1;jettySize=auto;html=1;exitX=0.5;exitY=1;exitDx=0;exitDy=0;entryX=0.692;entryY=0.019;entryDx=0;entryDy=0;entryPerimeter=0;startArrow=classic;startFill=1;" parent="1" source="4TyogP61yCH08lPokTED-21" target="4TyogP61yCH08lPokTED-6" edge="1">
          <mxGeometry relative="1" as="geometry" />
        </mxCell>
        <mxCell id="ksb8TZ0H9Ef2dd94mzRh-7" style="edgeStyle=orthogonalEdgeStyle;rounded=0;orthogonalLoop=1;jettySize=auto;html=1;exitX=0.5;exitY=1;exitDx=0;exitDy=0;entryX=0.308;entryY=0.019;entryDx=0;entryDy=0;entryPerimeter=0;startArrow=classic;startFill=1;" parent="1" source="4TyogP61yCH08lPokTED-23" target="4TyogP61yCH08lPokTED-10" edge="1">
          <mxGeometry relative="1" as="geometry" />
        </mxCell>
        <mxCell id="ksb8TZ0H9Ef2dd94mzRh-9" style="edgeStyle=orthogonalEdgeStyle;rounded=0;orthogonalLoop=1;jettySize=auto;html=1;exitX=0.5;exitY=1;exitDx=0;exitDy=0;entryX=0.131;entryY=0.058;entryDx=0;entryDy=0;entryPerimeter=0;startArrow=classic;startFill=1;" parent="1" source="4TyogP61yCH08lPokTED-6" target="4TyogP61yCH08lPokTED-12" edge="1">
          <mxGeometry relative="1" as="geometry" />
        </mxCell>
        <mxCell id="ksb8TZ0H9Ef2dd94mzRh-10" style="edgeStyle=orthogonalEdgeStyle;rounded=0;orthogonalLoop=1;jettySize=auto;html=1;exitX=0.5;exitY=1;exitDx=0;exitDy=0;entryX=0.869;entryY=0.025;entryDx=0;entryDy=0;entryPerimeter=0;startArrow=classic;startFill=1;" parent="1" source="4TyogP61yCH08lPokTED-10" target="4TyogP61yCH08lPokTED-12" edge="1">
          <mxGeometry relative="1" as="geometry" />
        </mxCell>
      </root>
    </mxGraphModel>
  </diagram>
</mxfile>
